<svg width="19" height="4" viewBox="0 0 19 4" fill="none" xmlns="http://www.w3.org/2000/svg">
<path d="M9.5 0C9.10444 0 8.71776 0.117298 8.38886 0.337061C8.05996 0.556824 7.80362 0.869181 7.65224 1.23463C7.50087 1.60009 7.46126 2.00222 7.53843 2.39018C7.6156 2.77814 7.80608 3.13451 8.08579 3.41421C8.36549 3.69392 8.72186 3.8844 9.10982 3.96157C9.49778 4.03874 9.89992 3.99913 10.2654 3.84776C10.6308 3.69638 10.9432 3.44004 11.1629 3.11114C11.3827 2.78224 11.5 2.39556 11.5 2C11.5 1.46957 11.2893 0.96086 10.9142 0.585787C10.5391 0.210714 10.0304 0 9.5 0ZM2.5 0C2.10444 0 1.71776 0.117298 1.38886 0.337061C1.05996 0.556824 0.803617 0.869181 0.652242 1.23463C0.500867 1.60009 0.46126 2.00222 0.53843 2.39018C0.615601 2.77814 0.806082 3.13451 1.08579 3.41421C1.36549 3.69392 1.72186 3.8844 2.10982 3.96157C2.49778 4.03874 2.89992 3.99913 3.26537 3.84776C3.63082 3.69638 3.94318 3.44004 4.16294 3.11114C4.3827 2.78224 4.5 2.39556 4.5 2C4.5 1.46957 4.28929 0.96086 3.91421 0.585787C3.53914 0.210714 3.03043 0 2.5 0ZM16.5 0C16.1044 0 15.7178 0.117298 15.3889 0.337061C15.06 0.556824 14.8036 0.869181 14.6522 1.23463C14.5009 1.60009 14.4613 2.00222 14.5384 2.39018C14.6156 2.77814 14.8061 3.13451 15.0858 3.41421C15.3655 3.69392 15.7219 3.8844 16.1098 3.96157C16.4978 4.03874 16.8999 3.99913 17.2654 3.84776C17.6308 3.69638 17.9432 3.44004 18.1629 3.11114C18.3827 2.78224 18.5 2.39556 18.5 2C18.5 1.46957 18.2893 0.96086 17.9142 0.585787C17.5391 0.210714 17.0304 0 16.5 0Z" fill="#29384E"/>
</svg>
