<svg width="817" height="856" viewBox="0 0 817 856" fill="none" xmlns="http://www.w3.org/2000/svg">
<path d="M388.422 740.5C561.011 740.5 700.922 600.589 700.922 428C700.922 255.411 561.011 115.5 388.422 115.5C215.833 115.5 75.9224 255.411 75.9224 428C75.9224 600.589 215.833 740.5 388.422 740.5Z" stroke="#2199FA"/>
<path fill-rule="evenodd" clip-rule="evenodd" d="M8.44773 233C79.2893 95.2366 222.851 1 388.422 1C624.248 1 815.422 192.174 815.422 428C815.422 663.826 624.248 855 388.422 855C216.908 855 69.0121 753.877 1.10302 608H0C67.9792 754.446 216.341 856 388.422 856C624.8 856 816.422 664.378 816.422 428C816.422 191.622 624.8 0 388.422 0C222.28 0 78.2482 94.6656 7.32337 233H8.44773Z" fill="#2199FA"/>
</svg>
